<svg xmlns="http://www.w3.org/2000/svg" viewBox="0 0 52 48">
    <path d="M51.3,47.4 L0,47.4 L0,25.67 C0.069077642,11.6264447 11.3579601,0.217562285 25.4,0 L26.61,0.02 C33.1077468,0.244461333 39.2715448,2.95409844 43.83,7.59 C48.6074041,12.3953808 51.292366,18.8939233 51.3,25.67 L51.3,47.4 Z M41.67,45.48 L49.38,45.48 L49.38,36.19 L41.67,36.19 L41.67,45.48 Z M31.61,45.48 L39.74,45.48 L39.74,36.19 L31.61,36.19 L31.61,45.48 Z M21.61,45.48 L29.7,45.48 L29.7,36.19 L21.61,36.19 L21.61,45.48 Z M11.55,45.48 L19.69,45.48 L19.69,36.19 L11.55,36.19 L11.55,45.48 Z M1.92,45.48 L9.63,45.48 L9.63,36.19 L1.92,36.19 L1.92,45.48 Z M1.92,34.27 L9.64,34.27 L9.64,24.98 L1.93,24.98 C1.92,25.21 1.92,25.44 1.92,25.66 L1.92,34.27 Z M41.66,34.27 L49.38,34.27 L49.38,25.66 C49.38,25.44 49.38,25.21 49.37,24.98 L41.66,24.98 L41.66,34.27 Z M31.61,34.27 L39.74,34.27 L39.74,24.98 L31.61,24.98 L31.61,34.27 Z M21.6,34.27 L29.69,34.27 L29.69,24.98 L21.6,24.98 L21.6,34.27 Z M11.55,34.27 L19.69,34.27 L19.69,24.98 L11.55,24.98 L11.55,34.27 Z M31.58,23.07 L39.67,23.07 C39.4026295,20.2463964 38.2949553,17.5677753 36.49,15.38 L30.76,20.63 C31.2199289,21.3682315 31.5007469,22.2038365 31.58,23.07 L31.58,23.07 Z M2.06,23.07 L9.69,23.07 C9.96742043,19.7654572 11.2558136,16.6265265 13.38,14.08 L8.33,9.46 C4.83327859,13.2060315 2.63491445,17.9779193 2.06,23.07 L2.06,23.07 Z M41.61,23.07 L49.24,23.07 C48.6739319,17.9754555 46.4743428,13.2009088 42.97,9.46 L37.92,14.08 C40.0434566,16.6269662 41.3317512,19.765657 41.61,23.07 L41.61,23.07 Z M11.62,23.07 L19.72,23.07 C19.8065646,22.2037083 20.0831339,21.3671716 20.53,20.62 L14.8,15.37 C12.9932061,17.5605301 11.885421,20.2429028 11.62,23.07 L11.62,23.07 Z M28.09,23.07 L29.64,23.07 C29.581768,22.6853163 29.4672058,22.3113043 29.3,21.96 L28.09,23.07 Z M21.65,23.06 L23.2,23.06 L21.98,21.95 C21.8204537,22.3034279 21.7094473,22.676813 21.65,23.06 L21.65,23.06 Z M26.61,19.74 L26.61,21.83 L28.1,20.46 C27.6570674,20.1218163 27.1502028,19.8768885 26.61,19.74 L26.61,19.74 Z M23.2,20.46 L24.7,21.83 L24.7,19.74 C24.154437,19.8704565 23.6430295,20.115932 23.2,20.46 L23.2,20.46 Z M26.61,17.78 C27.6927355,17.9628237 28.7054653,18.4363527 29.54,19.15 L35.19,13.98 C32.8421799,11.7942494 29.8110721,10.4871284 26.61,10.28 L26.61,17.78 Z M16.12,13.98 L21.77,19.15 C22.6045347,18.4363527 23.6172645,17.9628237 24.7,17.78 L24.7,10.28 C21.4989279,10.4871284 18.4678201,11.7942494 16.12,13.98 L16.12,13.98 Z M26.6,8.36 C30.335709,8.57490882 33.8747409,10.105301 36.59,12.68 L41.6,8.1 C37.4840703,4.3387671 32.1711621,2.15339088 26.6,1.93 L26.6,8.36 Z M9.7,8.11 L14.7,12.69 C17.4152591,10.115301 20.954291,8.58490882 24.69,8.37 L24.69,1.94 C19.1204076,2.15697339 13.8085315,4.3433827 9.7,8.11 L9.7,8.11 Z"/>
</svg>
